# xmcd CD database file
#
# Track frame offsets:
#	150
#	24810
#	57529
#	111325
#	170740
#	207767
#	221790
#	261071
#	280470
#	299224
#
# Disc length: 4677 seconds
#
# Revision: 0
# Processed by: cddbd v1.5PL3 Copyright (c) Steve Scherf et al.
# Submitted via: CDex 1.50
#
DISCID=a712430a
DTITLE=Wadada Leo Smith - Kabell Years: 1971-1979
DYEAR=1900
DGENRE=Jazz
TTITLE0=Nine (9) Stones on a Mountain
TTITLE1=Improvisation No. 4
TTITLE2=Creative Music - 1
TTITLE3=aFmie - Poem DancE 3
TTITLE4=Ogotommêli: Dogon Sage
TTITLE5=Ep - 1
TTITLE6=Ngoma: Gravity and Lightwaves
TTITLE7=Seeds
TTITLE8=Zekr
TTITLE9=Until the Fire
EXTD=
EXTT0=
EXTT1=
EXTT2=
EXTT3=
EXTT4=
EXTT5=
EXTT6=
EXTT7=
EXTT8=
EXTT9=
PLAYORDER=
